<?xml version="1.0" encoding="UTF-8" standalone="no"?>
<!DOCTYPE svg PUBLIC "-//W3C//DTD SVG 1.1//EN"
 "http://www.w3.org/Graphics/SVG/1.1/DTD/svg11.dtd">
<!-- Generated by graphviz version 2.40.1 (20161225.0304)
 -->
<!-- Title: dependencies Pages: 1 -->
<svg width="635pt" height="211pt"
 viewBox="0.00 0.00 635.00 211.00" xmlns="http://www.w3.org/2000/svg" xmlns:xlink="http://www.w3.org/1999/xlink">
<g id="graph0" class="graph" transform="scale(1 1) rotate(0) translate(4 207)">
<title>dependencies</title>
<polygon fill="#ffffff" stroke="transparent" points="-4,4 -4,-207 631,-207 631,4 -4,4"/>
<text text-anchor="start" x="292.5091" y="-42.4" font-family="sans-serif" font-weight="bold" font-size="14.00" fill="#000000">Legend</text>
<polygon fill="#ffffb3" stroke="transparent" points="79.5,-10 79.5,-30 99.5,-30 99.5,-10 79.5,-10"/>
<text text-anchor="start" x="103.129" y="-15.4" font-family="sans-serif" font-size="14.00" fill="#000000"> &#160;Declarations</text>
<polygon fill="#8dd3c7" stroke="transparent" points="192.5,-10 192.5,-30 212.5,-30 212.5,-10 192.5,-10"/>
<text text-anchor="start" x="216.2251" y="-15.4" font-family="sans-serif" font-size="14.00" fill="#000000"> &#160;Module</text>
<polygon fill="#80b1d3" stroke="transparent" points="278.5,-10 278.5,-30 298.5,-30 298.5,-10 278.5,-10"/>
<text text-anchor="start" x="302.2812" y="-15.4" font-family="sans-serif" font-size="14.00" fill="#000000"> &#160;Bootstrap</text>
<polygon fill="#fdb462" stroke="transparent" points="375.5,-10 375.5,-30 395.5,-30 395.5,-10 375.5,-10"/>
<text text-anchor="start" x="399.1732" y="-15.4" font-family="sans-serif" font-size="14.00" fill="#000000"> &#160;Providers</text>
<polygon fill="#fb8072" stroke="transparent" points="471.5,-10 471.5,-30 491.5,-30 491.5,-10 471.5,-10"/>
<text text-anchor="start" x="495.2258" y="-15.4" font-family="sans-serif" font-size="14.00" fill="#000000"> &#160;Exports</text>
<g id="clust1" class="cluster">
<title>cluster_AppModule</title>
<polygon fill="none" stroke="#000000" stroke-dasharray="1,5" points="8,-70 8,-195 619,-195 619,-70 8,-70"/>
</g>
<g id="clust3" class="cluster">
<title>cluster_AppModule_imports</title>
<polygon fill="none" stroke="#000000" points="16,-78 16,-130 611,-130 611,-78 16,-78"/>
</g>
<!-- CommonModule -->
<g id="node1" class="node">
<title>CommonModule</title>
<polygon fill="#8dd3c7" stroke="#000000" points="602.6681,-122 599.6681,-126 578.6681,-126 575.6681,-122 491.3319,-122 491.3319,-86 602.6681,-86 602.6681,-122"/>
<text text-anchor="middle" x="547" y="-99.8" font-family="Times,serif" font-size="14.00" fill="#000000">CommonModule</text>
</g>
<!-- AppModule -->
<g id="node6" class="node">
<title>AppModule</title>
<polygon fill="#8dd3c7" stroke="#000000" points="350.6571,-187 347.6571,-191 326.6571,-191 323.6571,-187 267.3429,-187 267.3429,-151 350.6571,-151 350.6571,-187"/>
<text text-anchor="middle" x="309" y="-164.8" font-family="Times,serif" font-size="14.00" fill="#000000">AppModule</text>
</g>
<!-- CommonModule&#45;&gt;AppModule -->
<g id="edge1" class="edge">
<title>CommonModule&#45;&gt;AppModule</title>
<path fill="none" stroke="#000000" d="M547,-122.2843C547,-143.3211 547,-175 547,-175 547,-175 360.7288,-175 360.7288,-175"/>
<polygon fill="#000000" stroke="#000000" points="360.7288,-171.5001 350.7288,-175 360.7287,-178.5001 360.7288,-171.5001"/>
</g>
<!-- DialogsModule -->
<g id="node2" class="node">
<title>DialogsModule</title>
<polygon fill="#8dd3c7" stroke="#000000" points="473.5968,-122 470.5968,-126 449.5968,-126 446.5968,-122 370.4032,-122 370.4032,-86 473.5968,-86 473.5968,-122"/>
<text text-anchor="middle" x="422" y="-99.8" font-family="Times,serif" font-size="14.00" fill="#000000">DialogsModule</text>
</g>
<!-- DialogsModule&#45;&gt;AppModule -->
<g id="edge2" class="edge">
<title>DialogsModule&#45;&gt;AppModule</title>
<path fill="none" stroke="#000000" d="M422,-122.0225C422,-139.3734 422,-163 422,-163 422,-163 360.756,-163 360.756,-163"/>
<polygon fill="#000000" stroke="#000000" points="360.756,-159.5001 350.756,-163 360.7559,-166.5001 360.756,-159.5001"/>
</g>
<!-- FilesModule -->
<g id="node3" class="node">
<title>FilesModule</title>
<polygon fill="#8dd3c7" stroke="#000000" points="352.2731,-122 349.2731,-126 328.2731,-126 325.2731,-122 265.7269,-122 265.7269,-86 352.2731,-86 352.2731,-122"/>
<text text-anchor="middle" x="309" y="-99.8" font-family="Times,serif" font-size="14.00" fill="#000000">FilesModule</text>
</g>
<!-- FilesModule&#45;&gt;AppModule -->
<g id="edge3" class="edge">
<title>FilesModule&#45;&gt;AppModule</title>
<path fill="none" stroke="#000000" d="M309,-122.1061C309,-122.1061 309,-140.991 309,-140.991"/>
<polygon fill="#000000" stroke="#000000" points="305.5001,-140.9909 309,-150.991 312.5001,-140.991 305.5001,-140.9909"/>
</g>
<!-- MessagesModule -->
<g id="node4" class="node">
<title>MessagesModule</title>
<polygon fill="#8dd3c7" stroke="#000000" points="247.972,-122 244.972,-126 223.972,-126 220.972,-122 134.028,-122 134.028,-86 247.972,-86 247.972,-122"/>
<text text-anchor="middle" x="191" y="-99.8" font-family="Times,serif" font-size="14.00" fill="#000000">MessagesModule</text>
</g>
<!-- MessagesModule&#45;&gt;AppModule -->
<g id="edge4" class="edge">
<title>MessagesModule&#45;&gt;AppModule</title>
<path fill="none" stroke="#000000" d="M191,-122.0225C191,-139.3734 191,-163 191,-163 191,-163 257.0654,-163 257.0654,-163"/>
<polygon fill="#000000" stroke="#000000" points="257.0654,-166.5001 267.0654,-163 257.0653,-159.5001 257.0654,-166.5001"/>
</g>
<!-- UsersModule -->
<g id="node5" class="node">
<title>UsersModule</title>
<polygon fill="#8dd3c7" stroke="#000000" points="115.9218,-122 112.9218,-126 91.9218,-126 88.9218,-122 24.0782,-122 24.0782,-86 115.9218,-86 115.9218,-122"/>
<text text-anchor="middle" x="70" y="-99.8" font-family="Times,serif" font-size="14.00" fill="#000000">UsersModule</text>
</g>
<!-- UsersModule&#45;&gt;AppModule -->
<g id="edge5" class="edge">
<title>UsersModule&#45;&gt;AppModule</title>
<path fill="none" stroke="#000000" d="M70,-122.2843C70,-143.3211 70,-175 70,-175 70,-175 257.0959,-175 257.0959,-175"/>
<polygon fill="#000000" stroke="#000000" points="257.0959,-178.5001 267.0959,-175 257.0959,-171.5001 257.0959,-178.5001"/>
</g>
</g>
</svg>
