<?xml version="1.0" encoding="UTF-8" standalone="no"?>
<!DOCTYPE svg PUBLIC "-//W3C//DTD SVG 1.1//EN"
 "http://www.w3.org/Graphics/SVG/1.1/DTD/svg11.dtd">
<!-- Generated by graphviz version 2.40.1 (20161225.0304)
 -->
<!-- Title: dependencies Pages: 1 -->
<svg width="504pt" height="211pt"
 viewBox="0.00 0.00 504.00 211.00" xmlns="http://www.w3.org/2000/svg" xmlns:xlink="http://www.w3.org/1999/xlink">
<g id="graph0" class="graph" transform="scale(1 1) rotate(0) translate(4 207)">
<title>dependencies</title>
<polygon fill="#ffffff" stroke="transparent" points="-4,4 -4,-207 500,-207 500,4 -4,4"/>
<text text-anchor="start" x="227.0091" y="-42.4" font-family="sans-serif" font-weight="bold" font-size="14.00" fill="#000000">Legend</text>
<polygon fill="#ffffb3" stroke="transparent" points="14,-10 14,-30 34,-30 34,-10 14,-10"/>
<text text-anchor="start" x="37.629" y="-15.4" font-family="sans-serif" font-size="14.00" fill="#000000"> &#160;Declarations</text>
<polygon fill="#8dd3c7" stroke="transparent" points="127,-10 127,-30 147,-30 147,-10 127,-10"/>
<text text-anchor="start" x="150.7251" y="-15.4" font-family="sans-serif" font-size="14.00" fill="#000000"> &#160;Module</text>
<polygon fill="#80b1d3" stroke="transparent" points="213,-10 213,-30 233,-30 233,-10 213,-10"/>
<text text-anchor="start" x="236.7812" y="-15.4" font-family="sans-serif" font-size="14.00" fill="#000000"> &#160;Bootstrap</text>
<polygon fill="#fdb462" stroke="transparent" points="310,-10 310,-30 330,-30 330,-10 310,-10"/>
<text text-anchor="start" x="333.6732" y="-15.4" font-family="sans-serif" font-size="14.00" fill="#000000"> &#160;Providers</text>
<polygon fill="#fb8072" stroke="transparent" points="406,-10 406,-30 426,-30 426,-10 406,-10"/>
<text text-anchor="start" x="429.7258" y="-15.4" font-family="sans-serif" font-size="14.00" fill="#000000"> &#160;Exports</text>
<g id="clust1" class="cluster">
<title>cluster_MessagesModule</title>
<polygon fill="none" stroke="#000000" stroke-dasharray="1,5" points="90,-70 90,-195 406,-195 406,-70 90,-70"/>
</g>
<g id="clust3" class="cluster">
<title>cluster_MessagesModule_imports</title>
<polygon fill="none" stroke="#000000" points="278,-78 278,-130 398,-130 398,-78 278,-78"/>
</g>
<g id="clust6" class="cluster">
<title>cluster_MessagesModule_providers</title>
<polygon fill="none" stroke="#000000" points="98,-78 98,-130 270,-130 270,-78 98,-78"/>
</g>
<!-- DialogsModule -->
<g id="node1" class="node">
<title>DialogsModule</title>
<polygon fill="#8dd3c7" stroke="#000000" points="389.5968,-122 386.5968,-126 365.5968,-126 362.5968,-122 286.4032,-122 286.4032,-86 389.5968,-86 389.5968,-122"/>
<text text-anchor="middle" x="338" y="-99.8" font-family="Times,serif" font-size="14.00" fill="#000000">DialogsModule</text>
</g>
<!-- MessagesModule -->
<g id="node2" class="node">
<title>MessagesModule</title>
<polygon fill="#8dd3c7" stroke="#000000" points="317.972,-187 314.972,-191 293.972,-191 290.972,-187 204.028,-187 204.028,-151 317.972,-151 317.972,-187"/>
<text text-anchor="middle" x="261" y="-164.8" font-family="Times,serif" font-size="14.00" fill="#000000">MessagesModule</text>
</g>
<!-- DialogsModule&#45;&gt;MessagesModule -->
<g id="edge1" class="edge">
<title>DialogsModule&#45;&gt;MessagesModule</title>
<path fill="none" stroke="#000000" d="M302.2188,-122.1061C302.2188,-122.1061 302.2188,-140.991 302.2188,-140.991"/>
<polygon fill="#000000" stroke="#000000" points="298.7189,-140.9909 302.2188,-150.991 305.7189,-140.991 298.7189,-140.9909"/>
</g>
<!-- MessagesService -->
<g id="node3" class="node">
<title>MessagesService</title>
<ellipse fill="#fdb462" stroke="#000000" cx="184" cy="-104" rx="77.5627" ry="18"/>
<text text-anchor="middle" x="184" y="-99.8" font-family="Times,serif" font-size="14.00" fill="#000000">MessagesService</text>
</g>
<!-- MessagesService&#45;&gt;MessagesModule -->
<g id="edge2" class="edge">
<title>MessagesService&#45;&gt;MessagesModule</title>
<path fill="none" stroke="#000000" d="M232.7727,-118.104C232.7727,-118.104 232.7727,-140.7209 232.7727,-140.7209"/>
<polygon fill="#000000" stroke="#000000" points="229.2728,-140.7209 232.7727,-150.7209 236.2728,-140.7209 229.2728,-140.7209"/>
</g>
</g>
</svg>
